<?xml version="1.0" encoding="iso-8859-1"?>
<!-- Generator: Adobe Illustrator 19.0.0, SVG Export Plug-In . SVG Version: 6.00 Build 0)  -->
<svg version="1.1" id="Capa_1" xmlns="http://www.w3.org/2000/svg" xmlns:xlink="http://www.w3.org/1999/xlink" x="0px" y="0px"
	 viewBox="0 0 56.48 56.48" style="enable-background:new 0 0 56.48 56.48;" xml:space="preserve">
<g>
	<g>
		<path d="M27.752,25.567c-0.781,0-1.486,0.391-2.094,1.161l-0.021,0.028v3.94l0.016,0.024c0.492,0.76,1.292,1.215,2.144,1.215
			c1.315,0,1.982-1.108,1.982-3.295C29.779,26.687,29.04,25.568,27.752,25.567z"/>
	</g>
</g>
<g>
	<g>
		<path d="M55.026,9.939H1.454C0.65,9.939,0,10.59,0,11.393v33.694c0,0.803,0.65,1.455,1.454,1.455h53.572
			c0.804,0,1.454-0.651,1.454-1.454V11.393C56.48,10.59,55.83,9.939,55.026,9.939z M8.492,31.187c0.658,0,1.296-0.298,1.848-0.86
			l0.035-0.033l0.883,1.068l-0.024,0.025c-0.735,0.869-1.617,1.293-2.7,1.293c-1.088,0-2.082-0.364-2.798-1.027
			c-0.778-0.714-1.189-1.725-1.189-2.918s0.411-2.202,1.189-2.916c0.716-0.66,1.711-1.026,2.798-1.026
			c1.084,0,1.966,0.422,2.7,1.291l0.024,0.029l-0.883,1.068l-0.035-0.034c-0.552-0.564-1.19-0.863-1.848-0.863
			c-1.374,0-2.371,1.032-2.371,2.451C6.121,30.158,7.118,31.187,8.492,31.187z M13.711,32.534H12.15v-7.618h1.561V32.534z
			 M19.541,32.291l-0.016,0.011c-0.258,0.155-0.682,0.364-1.385,0.35c-1.036-0.019-1.73-0.821-1.73-1.992v-4.3h-1.319v-1.435h1.319
			v-1.552l1.53-0.819v2.371h1.589v1.435H17.94v4.043c0,0.591,0.228,0.857,0.732,0.857c0.348,0,0.735-0.127,1.152-0.381l0.092-0.056
			L19.541,32.291z M22.678,32.534h-1.562v-7.618h1.562V32.534z M21.888,23.669l-0.02-0.021c-1.227-1.264-2.824-1.932-4.469-1.932
			c-1.644,0-3.242,0.668-4.466,1.932l-0.02,0.021h-1.799l0.073-0.104c1.426-2.023,3.799-3.23,6.211-3.23
			c2.414,0,4.787,1.207,6.215,3.23l0.072,0.104H21.888z M27.88,32.698c-0.821,0-1.479-0.317-2.07-1.002l-0.173-0.202v1.041h-0.889
			V22.526c0.076-0.044,0.68-0.39,0.889-0.508v4.049l0.173-0.188c0.656-0.724,1.382-1.077,2.217-1.077
			c1.671,0,2.629,1.393,2.629,3.821C30.656,31.099,29.567,32.698,27.88,32.698z M37.347,32.536h-0.891v-1.104l-0.173,0.19
			c-0.656,0.723-1.408,1.077-2.304,1.077c-0.702,0-2.336-0.233-2.336-2.387c0-1.762,1.455-2.387,2.816-2.387
			c0.684,0,1.361,0.157,1.85,0.432l0.146,0.081v-1.086c0-1.205-0.588-1.815-1.751-1.815c-0.716,0-1.364,0.181-2.028,0.555
			c-0.058-0.134-0.264-0.59-0.322-0.719c0.694-0.366,1.55-0.57,2.424-0.57c1.728,0,2.568,0.79,2.568,2.416h0.001V32.536z
			 M44.842,32.534h-0.893v-4.443c0-1.723-0.599-2.524-1.896-2.524c-1.24,0-1.981,0.943-1.981,2.524v4.443H39.18v-7.57h0.892v1.174
			l0.181-0.271c0.459-0.686,1.179-1.065,2.021-1.065c1.678,0,2.568,1.072,2.568,3.098V32.534z M50.978,32.534
			c-0.051-0.11-1.973-4.177-1.973-4.177l-1.437,2.01v2.167h-0.892V22.526c0.08-0.044,0.683-0.39,0.892-0.508v7.267l0.487-0.757
			c-0.002,0.003,2.183-3.16,2.463-3.563h0.974c-0.207,0.278-1.925,2.642-1.925,2.642s2.238,4.661,2.367,4.928L50.978,32.534z"/>
	</g>
</g>
<g>
	<g>
		<path d="M36.404,29.07c-0.568-0.324-1.15-0.455-2.006-0.455c-1.178,0-1.883,0.606-1.883,1.622c0,1.131,0.586,1.755,1.65,1.755
			c0.907,0,1.713-0.429,2.271-1.208l0.017-0.027v-1.66L36.404,29.07z"/>
	</g>
</g>
<g>
</g>
<g>
</g>
<g>
</g>
<g>
</g>
<g>
</g>
<g>
</g>
<g>
</g>
<g>
</g>
<g>
</g>
<g>
</g>
<g>
</g>
<g>
</g>
<g>
</g>
<g>
</g>
<g>
</g>
</svg>
