<?xml version="1.0" encoding="iso-8859-1"?>
<!-- Generator: Adobe Illustrator 19.0.0, SVG Export Plug-In . SVG Version: 6.00 Build 0)  -->
<svg version="1.1" id="Capa_1" xmlns="http://www.w3.org/2000/svg" xmlns:xlink="http://www.w3.org/1999/xlink" x="0px" y="0px"
	 viewBox="0 0 56.48 56.48" style="enable-background:new 0 0 56.48 56.48;" xml:space="preserve">
<g>
	<g>
		<path d="M23.261,37.552c0,1.285,1.044,1.386,1.364,1.386c1.183,0,1.869-0.777,2.096-1.443c0.054-0.163,0.084-0.329,0.084-0.465
			v-1.39C24.454,35.653,23.261,36.297,23.261,37.552z"/>
	</g>
</g>
<g>
	<g>
		<path d="M55.026,9.939H1.454C0.65,9.939,0,10.59,0,11.393v33.694c0,0.803,0.65,1.455,1.454,1.455h53.572
			c0.804,0,1.454-0.651,1.454-1.454V11.393C56.48,10.59,55.83,9.939,55.026,9.939z M16.412,38.75c1.036,0,2.113-0.211,2.811-0.549
			c0.099-0.049,0.218-0.052,0.32-0.003c0.102,0.047,0.178,0.138,0.206,0.246l0.377,1.445c0.045,0.17-0.037,0.35-0.195,0.43
			c-0.685,0.343-2.069,0.71-3.897,0.71c-4.466,0-7.351-2.952-7.351-7.519c0-4.587,3.186-7.792,7.749-7.792
			c2.075,0,3.223,0.513,3.525,0.671c0.16,0.083,0.238,0.267,0.187,0.439l-0.44,1.488c-0.031,0.106-0.107,0.192-0.208,0.237
			c-0.102,0.043-0.218,0.041-0.315-0.006c-0.73-0.355-1.684-0.55-2.686-0.55c-3.216,0-5.135,2.037-5.135,5.449
			C11.36,36.765,13.249,38.749,16.412,38.75z M29.421,40.685c-0.07,0.086-0.177,0.135-0.287,0.135h-1.677
			c-0.191,0-0.352-0.145-0.373-0.333l-0.059-0.511c-0.748,0.682-1.776,1.074-2.879,1.074c-2.282,0-3.476-1.654-3.476-3.287
			c0-1.522,0.801-4.056,6.093-4.145c-0.051-1.216-0.682-1.809-1.926-1.809c-0.854,0-1.765,0.259-2.436,0.695
			c-0.097,0.061-0.219,0.076-0.326,0.039c-0.109-0.037-0.194-0.123-0.232-0.232l-0.419-1.215c-0.057-0.163,0.005-0.342,0.15-0.437
			c0.94-0.61,2.228-0.961,3.535-0.961c2.727,0,4.229,1.606,4.229,4.522v3.793c0,0.992,0.053,1.764,0.161,2.362
			C29.518,40.486,29.491,40.596,29.421,40.685z M29.842,27.369c0,0.158-0.099,0.299-0.248,0.353c-0.812,0.291-2.095,0.64-3.588,0.64
			c-1.889,0-3.353-0.521-4.475-1.591c-1.073-1.037-1.688-2.666-1.688-4.471c0.018-3.707,2.623-6.197,6.481-6.197
			c1.346,0,2.417,0.287,2.974,0.556c0.164,0.08,0.248,0.268,0.195,0.444l-0.352,1.188c-0.03,0.104-0.104,0.189-0.202,0.234
			c-0.099,0.044-0.212,0.045-0.31,0.002c-0.474-0.211-1.169-0.453-2.34-0.453c-2.565,0-4.158,1.593-4.158,4.158
			c0,2.614,1.486,4.175,3.974,4.175c0.824,0,1.31-0.101,1.566-0.181v-2.732h-1.917c-0.207,0-0.375-0.168-0.375-0.375v-1.171
			c0-0.207,0.168-0.375,0.375-0.375h3.713c0.207,0,0.375,0.168,0.375,0.375V27.369z M32.386,16.202c0.739,0,1.276,0.545,1.276,1.295
			c0.013,0.331-0.108,0.652-0.337,0.89c-0.243,0.25-0.587,0.388-0.973,0.388c-0.709,0-1.264-0.561-1.264-1.278
			C31.088,16.758,31.645,16.202,32.386,16.202z M31.272,27.869v-8.097c0-0.207,0.168-0.375,0.375-0.375h1.472
			c0.207,0,0.375,0.168,0.375,0.375v8.097c0,0.207-0.168,0.375-0.375,0.375h-1.472C31.44,28.244,31.272,28.075,31.272,27.869z
			 M37.322,31.877c0,0.113-0.053,0.221-0.14,0.292c-0.087,0.071-0.205,0.096-0.315,0.074c-0.171-0.038-0.335-0.054-0.548-0.054
			c-1.067,0-1.874,0.789-2.104,2.059c-0.037,0.229-0.078,0.506-0.078,0.792v5.406c0,0.207-0.168,0.375-0.375,0.375H31.94
			c-0.207,0-0.375-0.168-0.375-0.375v-6.977c0-1.315-0.025-2.284-0.082-3.14c-0.007-0.102,0.03-0.205,0.1-0.28
			c0.071-0.076,0.17-0.119,0.274-0.119h1.612c0.203,0,0.367,0.16,0.375,0.362l0.022,0.729c0.771-1.016,2.023-1.537,3.171-1.249
			c0.167,0.042,0.284,0.192,0.284,0.364h0.001V31.877z M37.17,28.245h-1.455c-0.207,0-0.375-0.168-0.375-0.375v-6.601h-0.761
			c-0.207,0-0.375-0.168-0.375-0.375v-1.121c0-0.207,0.168-0.375,0.375-0.375l0.763-0.01c0-1.391,0.355-2.434,1.055-3.099
			c0.568-0.551,1.361-0.856,2.232-0.856c0.686,0,1.205,0.184,1.396,0.263c0.164,0.067,0.257,0.239,0.227,0.412l-0.201,1.138
			c-0.02,0.115-0.093,0.213-0.197,0.267c-0.101,0.054-0.226,0.056-0.33,0.008c-0.215-0.1-0.476-0.15-0.778-0.15
			c-0.327,0-1.198,0-1.198,1.967v0.061h1.582c0.123,0,0.227,0.062,0.295,0.153c0.067-0.09,0.17-0.153,0.293-0.153h0.881v-1.565
			c0-0.17,0.113-0.318,0.277-0.362l1.438-0.385c0.11-0.03,0.231-0.007,0.325,0.065c0.092,0.07,0.146,0.18,0.146,0.297v1.95h1.731
			c0.207,0,0.375,0.168,0.375,0.375v1.121c0,0.207-0.168,0.375-0.375,0.375h-1.731v3.99c0,1.105,0.36,1.197,0.729,1.197
			c0.353,0,0.607-0.047,0.756-0.087c0.107-0.03,0.224-0.007,0.316,0.058c0.09,0.066,0.147,0.169,0.154,0.281l0.066,1.104
			c0.011,0.161-0.084,0.308-0.231,0.37c-0.36,0.147-0.874,0.229-1.448,0.229c-0.796,0-1.443-0.259-1.871-0.749
			c-0.447-0.464-0.66-1.216-0.66-2.354v-4.041h-0.881c-0.121,0-0.226-0.062-0.293-0.153c-0.068,0.09-0.172,0.153-0.295,0.153h-1.582
			v6.601C37.545,28.075,37.377,28.244,37.17,28.245z M47.697,40.693c-0.071,0.078-0.172,0.122-0.276,0.122h-1.656
			c-0.2,0-0.365-0.157-0.375-0.357l-0.034-0.722c-0.775,0.827-1.914,1.31-3.173,1.31c-2.732,0-4.713-2.324-4.713-5.529
			c-0.01-1.799,0.569-3.379,1.631-4.448c0.881-0.886,2.05-1.373,3.291-1.373c1.084,0,2.043,0.338,2.726,0.935v-5.063
			c0-0.207,0.168-0.375,0.375-0.375h1.845c0.207,0,0.375,0.168,0.375,0.375v12.256c0,0.625,0.01,1.791,0.082,2.585
			C47.805,40.515,47.77,40.619,47.697,40.693z"/>
	</g>
</g>
<g>
	<g>
		<path d="M45.049,33.752c-0.217-0.933-1.01-1.86-2.299-1.857c-1.617,0-2.662,1.39-2.662,3.542c0,1.631,0.687,3.375,2.62,3.375
			c1.121,0,2.062-0.769,2.339-1.914c0.051-0.205,0.072-0.416,0.072-0.708v-1.76C45.119,34.228,45.1,33.943,45.049,33.752z"/>
	</g>
</g>
<g>
</g>
<g>
</g>
<g>
</g>
<g>
</g>
<g>
</g>
<g>
</g>
<g>
</g>
<g>
</g>
<g>
</g>
<g>
</g>
<g>
</g>
<g>
</g>
<g>
</g>
<g>
</g>
<g>
</g>
</svg>
