<?xml version="1.0" encoding="iso-8859-1"?>
<!-- Generator: Adobe Illustrator 19.0.0, SVG Export Plug-In . SVG Version: 6.00 Build 0)  -->
<svg version="1.1" id="Capa_1" xmlns="http://www.w3.org/2000/svg" xmlns:xlink="http://www.w3.org/1999/xlink" x="0px" y="0px"
	 viewBox="0 0 56.48 56.48" style="enable-background:new 0 0 56.48 56.48;" xml:space="preserve">
<g>
	<g>
		<path d="M55.026,9.939H1.454C0.65,9.939,0,10.59,0,11.393v33.694c0,0.803,0.65,1.455,1.454,1.455h53.572
			c0.804,0,1.454-0.651,1.454-1.454V11.393C56.48,10.59,55.83,9.939,55.026,9.939z M36.781,29.877h6.344v1.526h-4.576v1.813h4.203
			v1.524h-4.203v2.235h4.779V38.5h-6.547V29.877z M33.239,20.76c0.235-0.287,0.373-0.613,0.528-0.917
			c0.169-0.3,0.27-0.608,0.354-0.898c0.08-0.29,0.199-0.553,0.229-0.799c0.039-0.247,0.075-0.462,0.101-0.639
			c0.058-0.359,0.09-0.564,0.09-0.564s0.013,0.207,0.034,0.569c0.012,0.183,0.023,0.407,0.04,0.662
			c0.022,0.258-0.034,0.543-0.054,0.863c-0.022,0.32-0.057,0.669-0.166,1.025c-0.092,0.36-0.17,0.755-0.354,1.125
			c-0.08,0.192-0.164,0.386-0.249,0.583c-0.091,0.195-0.217,0.372-0.327,0.562c-0.216,0.39-0.498,0.736-0.789,1.083
			c-0.281,0.36-0.631,0.642-0.949,0.961c-0.353,0.265-0.686,0.57-1.047,0.787c-0.353,0.238-0.703,0.453-1.049,0.631
			c-0.34,0.197-0.679,0.335-0.988,0.483c-0.479,0.203-0.903,0.361-1.254,0.475c0.159,0.36,0.297,0.735,0.403,1.136
			c0.108,0.413,0.206,0.835,0.23,1.317c-0.47-0.116-0.865-0.293-1.248-0.479c-0.383-0.189-0.735-0.403-1.064-0.633
			c-0.662-0.459-1.232-0.996-1.752-1.573c-0.394-0.438-0.447-1.063-0.177-1.551l0.056-0.097c0.438-0.785,0.964-1.518,1.609-2.179
			c0.319-0.332,0.672-0.643,1.064-0.932c0.201-0.143,0.407-0.281,0.621-0.414c0.221-0.129,0.456-0.25,0.713-0.357
			c0.026,0.276,0.031,0.541,0.017,0.796c-0.017,0.252-0.042,0.499-0.072,0.743c-0.072,0.481-0.181,0.939-0.326,1.377
			c-0.016,0.047-0.035,0.091-0.05,0.138c0.153-0.023,0.313-0.049,0.486-0.08c0.271-0.066,0.578-0.114,0.884-0.214
			c0.317-0.081,0.639-0.192,0.965-0.322c0.342-0.112,0.646-0.298,0.993-0.449c0.301-0.2,0.658-0.367,0.942-0.609
			c0.301-0.23,0.605-0.464,0.848-0.748c0.128-0.138,0.274-0.265,0.386-0.411C33.024,21.06,33.131,20.911,33.239,20.76z
			 M21.625,21.823c0.032-0.32,0.076-0.667,0.196-1.02c0.103-0.357,0.192-0.749,0.387-1.114c0.087-0.188,0.175-0.381,0.266-0.575
			c0.097-0.191,0.229-0.364,0.345-0.551c0.226-0.384,0.52-0.721,0.821-1.059c0.291-0.353,0.651-0.623,0.978-0.933
			c0.359-0.254,0.701-0.548,1.068-0.755c0.36-0.228,0.716-0.433,1.068-0.6c0.345-0.186,0.689-0.314,1.002-0.453
			c0.484-0.188,0.914-0.334,1.268-0.438c-0.148-0.364-0.275-0.743-0.37-1.147c-0.096-0.416-0.181-0.841-0.191-1.324
			c0.465,0.13,0.856,0.32,1.234,0.517c0.377,0.2,0.722,0.423,1.044,0.665c0.648,0.479,1.202,1.033,1.705,1.625
			c0.381,0.449,0.414,1.076,0.13,1.555l-0.058,0.096c-0.463,0.772-1.012,1.488-1.674,2.13c-0.33,0.323-0.694,0.624-1.092,0.901
			c-0.205,0.135-0.416,0.267-0.635,0.394c-0.225,0.123-0.463,0.236-0.723,0.336c-0.017-0.278-0.014-0.543,0.006-0.797
			c0.026-0.252,0.058-0.498,0.096-0.741c0.087-0.478,0.209-0.933,0.367-1.367c0.017-0.046,0.036-0.09,0.054-0.136
			c-0.154,0.018-0.314,0.039-0.488,0.065c-0.273,0.058-0.582,0.098-0.891,0.188c-0.319,0.072-0.643,0.173-0.974,0.293
			c-0.346,0.101-0.656,0.278-1.007,0.419c-0.309,0.191-0.667,0.348-0.96,0.581c-0.307,0.222-0.617,0.446-0.87,0.723
			c-0.129,0.134-0.279,0.256-0.396,0.4c-0.112,0.147-0.223,0.294-0.332,0.438c-0.243,0.28-0.391,0.602-0.555,0.902
			c-0.181,0.294-0.289,0.599-0.383,0.887c-0.089,0.287-0.215,0.547-0.253,0.792c-0.046,0.245-0.087,0.459-0.12,0.635
			c-0.067,0.358-0.105,0.562-0.105,0.562s-0.007-0.207-0.019-0.57c-0.005-0.184-0.012-0.407-0.02-0.663
			C21.528,22.426,21.594,22.143,21.625,21.823z M16.425,40.37h-1.242v3.377h-0.855V40.37h-1.24v-0.727h3.338L16.425,40.37z
			 M15.137,38.5l-2.438-8.625h1.92c1.105,4.723,1.215,5.323,1.371,6.307h0.024c0.156-0.901,0.287-1.778,1.201-6.307h1.91
			c1.008,4.735,1.094,5.191,1.285,6.307h0.024c0.144-0.817,0.287-1.562,1.406-6.307h1.826L21.238,38.5h-1.729
			c-0.889-4.228-1.047-5.069-1.334-6.727h-0.023c-0.266,1.659-0.408,2.282-1.334,6.727H15.137z M19.425,43.744L19.425,43.744
			c-0.057-0.193-0.09-0.404-0.09-0.828c0-0.558-0.035-0.777-0.67-0.777H17.78v1.606h-0.842V39.64h2.076
			c1.092,0,1.291,0.808,1.291,1.162c0,0.452-0.229,0.84-0.635,0.978c0.337,0.147,0.521,0.274,0.521,1.04
			c0,0.599,0,0.749,0.182,0.816l0.001,0.108H19.425z M23.602,43.747l-0.264-0.846h-1.514l-0.285,0.846h-0.904l1.463-4.104h0.99
			l1.445,4.104H23.602z M24.621,29.875h1.801V38.5h-1.801V29.875z M27.532,43.747l-1.674-2.926h-0.012v2.926h-0.799v-4.104h0.902
			L27.58,42.5h0.01v-2.857h0.8l0.001,4.104H27.532z M30.762,43.857c-1.498,0-1.754-0.864-1.754-1.372h0.82
			c0.006,0.229,0.121,0.663,0.871,0.663c0.404,0,0.857-0.097,0.857-0.531c0-0.321-0.308-0.406-0.744-0.509l-0.439-0.103
			c-0.664-0.154-1.303-0.303-1.303-1.207c0-0.457,0.244-1.263,1.576-1.263c1.258,0,1.594,0.823,1.6,1.326h-0.82
			c-0.026-0.182-0.092-0.617-0.842-0.617c-0.324,0-0.715,0.119-0.715,0.491c0,0.321,0.264,0.389,0.436,0.429l0.998,0.246
			c0.562,0.138,1.076,0.367,1.076,1.103C32.379,43.747,31.121,43.857,30.762,43.857z M31.732,35.124h-1.861V38.5h-1.768v-8.626
			h4.359c2.295,0,2.717,1.694,2.717,2.439c0,0.95-0.48,1.766-1.334,2.054c0.709,0.313,1.093,0.579,1.093,2.188
			c0,1.261,0,1.574,0.385,1.717V38.5h-1.992c-0.12-0.408-0.192-0.852-0.192-1.742C33.139,35.581,33.066,35.125,31.732,35.124z
			 M35.954,40.37h-2.062v0.926h1.805v0.726h-1.805v1.726h-0.857v-4.104h2.919V40.37z M39.646,43.745h-3.115V39.64h3.018v0.728
			h-2.178v0.863h2v0.726h-2v1.063h2.275V43.745z M43.782,43.745h-0.947c-0.057-0.194-0.09-0.405-0.09-0.829
			c0-0.558-0.037-0.777-0.67-0.777H41.19v1.606h-0.842V39.64h2.074c1.092,0,1.293,0.808,1.293,1.162c0,0.452-0.232,0.84-0.636,0.978
			c0.336,0.147,0.521,0.274,0.521,1.04c0,0.599,0,0.749,0.181,0.816h0.001V43.745z"/>
	</g>
</g>
<g>
	<g>
		<path d="M32.117,31.366h-2.244v2.306h2.111c0.938,0,1.395-0.324,1.395-1.177C33.379,32.039,33.176,31.366,32.117,31.366z"/>
	</g>
</g>
<g>
	<g>
		<path d="M42.255,40.353h-1.066v1.098h1.004c0.447,0,0.664-0.155,0.664-0.561C42.857,40.672,42.76,40.353,42.255,40.353z"/>
	</g>
</g>
<g>
	<g>
		<polygon points="22.588,40.57 22.58,40.57 22.053,42.193 23.1,42.193 		"/>
	</g>
</g>
<g>
	<g>
		<path d="M18.847,40.353h-1.068v1.098h1.004c0.447,0,0.664-0.154,0.664-0.561C19.447,40.672,19.349,40.353,18.847,40.353z"/>
	</g>
</g>
<g>
</g>
<g>
</g>
<g>
</g>
<g>
</g>
<g>
</g>
<g>
</g>
<g>
</g>
<g>
</g>
<g>
</g>
<g>
</g>
<g>
</g>
<g>
</g>
<g>
</g>
<g>
</g>
<g>
</g>
</svg>
